<svg preserveAspectRatio="xMidYMid meet" data-bbox="0 0 236.46 25" xmlns="http://www.w3.org/2000/svg" viewBox="0 0 236.46 25" height="25" width="237" data-type="color" role="presentation" aria-hidden="true" aria-label=""><defs><style>#comp-ltdhvqib1 svg [data-color="1"] {fill: #FAFAFA;}</style></defs>
    <g fill-rule="evenodd">
        <path fill-rule="nonzero" d="M37.478.904v14.171c0 5.036 4.197 9.2 9.394 9.2 5.23 0 9.459-4.164 9.459-9.2V.904a.139.139 0 0 0-.13-.13h-5.068a.139.139 0 0 0-.129.13v13.881c0 2.324-1.743 4.164-4.132 4.164-2.356 0-4.067-1.84-4.067-4.164V.904a.139.139 0 0 0-.13-.13h-5.067a.139.139 0 0 0-.13.13" fill="white" data-color="1"></path>
        <path fill-rule="nonzero" d="M78.96 23.404s0 .032 0 0c.064.161.42.904.613 1.291.032.032.065.065.13.065.064 0 .096-.033.128-.065.194-.387.55-1.13.614-1.291.097-.194 10.362-21.725 10.394-21.822.065-.162.226-.452.29-.646.033-.032 0-.097 0-.129-.031-.032-.064-.065-.096-.065h-5.456c-.064 0-.096.033-.129.065a2.56 2.56 0 0 1-.129.29c-.097.162-4.971 10.75-5.423 11.75-.032.033-.065.065-.13.065h-.031c-.065 0-.097-.032-.13-.064-.451-1-5.39-11.686-5.423-11.75 0 0-.097-.194-.129-.291-.032-.032-.064-.065-.129-.065h-5.456c-.032 0-.096.033-.096.065a.098.098 0 0 0 0 .13c.096.225.29.645.29.645.065.193 10.201 21.628 10.298 21.822Z" fill="white" data-color="1"></path>
        <path fill-rule="nonzero" d="M101.589 12.557c0 6.618 5.262 11.88 11.88 11.88 6.617 0 11.911-5.262 11.911-11.88 0-6.617-5.294-11.944-11.912-11.944-6.617 0-11.879 5.327-11.879 11.944m5.294 0c0-3.647 2.97-6.65 6.585-6.65 3.648 0 6.618 3.003 6.618 6.65 0 3.616-2.97 6.586-6.618 6.586-3.615 0-6.585-2.97-6.585-6.586" fill="white" data-color="1"></path>
        <path d="M144.523 1.71V.905c0-.032 0-.065-.032-.097-.033-.032-.065-.032-.097-.032h-4.94c-.031 0-.064 0-.096.032s-.032.065-.032.097v23.242c0 .065.064.13.129.13h13.461a.14.14 0 0 0 .13-.13V19.53a.139.139 0 0 0-.13-.129h-8.232c-.032 0-.064 0-.096-.032-.033-.033-.033-.065-.033-.097l-.032-17.561Z" fill="white" data-color="1"></path>
        <path d="M164.763 22.435c.033-.032 9.781-20.756 9.878-20.982.065-.162.42-.904.614-1.292.032-.032.064-.064.129-.064.064 0 .097.032.129.064.194.388.549 1.13.613 1.292.097.193 9.104 19.336 9.168 19.433l1.517 3.196c.033.032 0 .097 0 .129-.032.032-.064.064-.097.064h-5.132c-.065 0-.097-.032-.13-.064-.096-.194-.29-.646-.322-.678 0-.032-.032-.032-.032-.065-.033-.064-.969-2.098-1.163-2.517-.032-.033-.064-.065-.129-.065h-8.845c-.064 0-.097.032-.129.065l-.387.839-.775 1.71v.033s-.226.484-.29.646c-.033.032-.065.064-.13.064h-5.165c-.032 0-.096-.032-.096-.064a.098.098 0 0 1 0-.13c.193-.42.774-1.614.774-1.614Zm8.297-6.004c-.033 0-.097-.032-.097-.064a.098.098 0 0 1 0-.13c.42-.903 2.195-4.81 2.389-5.165 0-.032.032-.032.032-.032s2.001 4.261 2.42 5.197c.033.033 0 .097 0 .13-.031.032-.064.064-.096.064h-4.648Z" fill="white" data-color="1"></path>
        <path d="M209.634.742H199.24c-.033 0-.065 0-.097.033-.033.032-.033.064-.033.097v23.274c0 .033 0 .065.033.097.032.032.064.032.097.032h4.939c.032 0 .064 0 .096-.032.033-.032.033-.064.033-.097v-8.942c0-.032 0-.064.032-.096.032-.033.065-.033.097-.033h2.066c.064 0 .097.033.129.065.387.807 4.1 8.264 4.487 9.07.032.033.065.065.13.065h5.552c.032 0 .096-.032.096-.064a.098.098 0 0 0 0-.13c-.645-1.226-4.358-8.166-4.874-9.2-.032-.032-.032-.064 0-.096a.07.07 0 0 1 .065-.065c2.808-1.194 4.777-3.648 4.777-6.714 0-4.003-3.228-7.264-7.23-7.264Zm-5.197 10.04c-.032 0-.065 0-.097-.032-.032-.033-.032-.065-.032-.097V5.68c0-.032 0-.064.032-.096.032-.033.065-.033.097-.033h4.777c1.356 0 2.518 1.13 2.518 2.55 0 1.421-1.162 2.68-2.518 2.68h-4.777Z" fill="white" data-color="1"></path>
        <path d="M236.46.904a.139.139 0 0 0-.13-.13h-4.97a.139.139 0 0 0-.13.13v23.242c0 .065.065.13.13.13h4.97a.14.14 0 0 0 .13-.13V.904Z" fill="white" data-color="1"></path>
        <path d="M.194 0C.226 0 .29 0 .323.032c1.872 1.55 14.074 11.686 15.947 13.236.032.032.097.032.161.032.065-.032.097-.065.097-.13V.808c0-.032 0-.065.032-.097.033-.032.065-.032.097-.032.775 0 4.229.032 5.004.032.064 0 .129.065.129.162v23.984c0 .064-.032.096-.097.129-.032 0-.065.032-.097 0-.032 0-.097 0-.129-.033-1.872-1.55-14.075-11.685-15.947-13.235-.032-.032-.097-.032-.161-.032-.065.032-.097.064-.097.129v12.331c0 .033 0 .065-.032.097-.033.032-.065.032-.097.032-.775 0-4.23-.032-5.004-.032-.064 0-.129-.064-.129-.161V6.585L.032.161C.032.097.065.032.13 0h.065Z" fill="white" data-color="1"></path>
    </g>
</svg>